<svg width="115" height="115" viewBox="0 0 115 115" fill="none" xmlns="http://www.w3.org/2000/svg">
<path d="M29.3428 8.92251C22.9482 12.6871 17.3271 16.0391 16.8114 16.4517C15.7801 17.3283 5.05359 36.1512 5.36301 36.5122C5.51772 36.6669 5.93027 36.5122 6.29126 36.2543C8.35404 34.6041 41.3585 15.9875 42.1836 15.9875C42.7509 15.9875 46.9796 18.205 51.6209 20.9898C56.2621 23.723 64.2554 28.3642 69.3608 31.3552C74.4661 34.2947 79.4168 37.1826 80.3451 37.7499L81.9953 38.7812V31.8709L81.9437 25.0122L68.9998 17.5346C61.8832 13.4091 53.0648 8.2521 49.3518 6.03461C45.6904 3.86869 42.2868 2.06376 41.8227 2.06376C41.3585 2.11533 35.7374 5.15793 29.3428 8.92251Z" fill="#FCFCFC"/>
<path d="M49.8158 2.52802C50.2284 2.94057 56.262 6.39573 66.0087 11.759C69.567 13.7186 85.2957 22.7948 85.6051 23.0527C85.7598 23.2074 85.9661 33.676 86.1208 46.4137L86.3786 69.5684L91.9481 66.3711L97.4661 63.2253V39.7096V16.1424L85.0894 9.12891L72.7643 2.06389H61.0064C53.993 2.06389 49.5064 2.27017 49.8158 2.52802Z" fill="#FCFCFC"/>
<path d="M28.6208 27.9001C12.6858 37.1311 6.03335 41.0504 3.76429 42.3912L2.0625 43.4226V57.862V72.3015L7.99299 82.6669L13.9235 93.084V71.8374C13.9235 53.6333 14.0266 50.4876 14.697 49.8172C15.5737 48.9405 22.7419 44.6602 40.5849 34.2948C47.4952 30.3239 53.1679 26.8172 53.1679 26.5593C53.271 26.0436 43.4728 20.1131 42.5446 20.1131C42.2351 20.1131 35.9437 23.6199 28.6208 27.9001Z" fill="#FCFCFC"/>
<path d="M101.592 43.9381V64.9269L100.2 65.9067C97.4664 67.8148 80.139 78.2318 71.2691 83.2341C66.37 86.0704 62.2444 88.4942 62.0897 88.752C61.8834 89.113 70.2377 94.3731 72.3005 95.1466C72.9709 95.4045 84.1099 89.1646 108.554 74.8283L112.679 72.4045L112.834 57.3462L112.937 42.2879L107.677 33.1085C104.789 28.1063 102.262 23.7744 102.004 23.465C101.798 23.2072 101.592 32.4381 101.592 43.9381Z" fill="#FCFCFC"/>
<path d="M23.3604 48.8882C20.4209 50.5384 17.9971 52.2402 17.8424 52.7559C17.7393 53.2716 17.5846 63.8433 17.533 76.3232L17.4814 98.9106L29.8066 105.924L42.1317 112.938H53.8895C61.0577 112.938 65.4927 112.731 65.1832 112.473C64.9254 112.216 59.8716 109.276 53.8895 105.976C36.098 96.0227 30.1675 92.6191 29.8066 92.0518C29.6003 91.794 29.394 81.2738 29.394 68.6909C29.394 56.1595 29.2393 45.8971 29.033 45.8971C28.7752 45.8971 26.2483 47.2379 23.3604 48.8882Z" fill="#FCFCFC"/>
<path d="M33.5195 83.4397V90.0921L44.5038 96.4352C50.4859 99.9419 59.459 105.202 64.3581 108.141C69.2572 111.081 73.3828 113.453 73.5375 113.453C73.6406 113.453 76.8379 111.648 80.6025 109.379C84.3155 107.162 89.7819 104.016 92.6698 102.366C95.5576 100.767 98.2393 99.0137 98.7034 98.5495C99.1159 98.0854 101.694 93.7536 104.428 88.9576C107.212 84.1101 109.636 79.9845 109.894 79.7267C111.544 77.9733 108.398 79.6235 92.3088 89.0092C82.4074 94.785 74.0016 99.5294 73.6922 99.5294C73.3312 99.5294 64.6675 94.6818 54.4568 88.7513C44.1944 82.8724 35.3245 77.7155 34.7056 77.406L33.5195 76.7872V83.4397Z" fill="#FCFCFC"/>
</svg>
